<?xml version="1.0" standalone="no"?><!DOCTYPE svg PUBLIC "-//W3C//DTD SVG 1.1//EN" "http://www.w3.org/Graphics/SVG/1.1/DTD/svg11.dtd"><svg t="1629871464919" class="icon" viewBox="0 0 1024 1024" version="1.1" xmlns="http://www.w3.org/2000/svg" p-id="11216" xmlns:xlink="http://www.w3.org/1999/xlink" width="64" height="64"><defs><style type="text/css"></style></defs><path d="M423.586341 436.573659h479.531708c4.395707 0 7.992195-3.596488 7.992195-7.992196v-47.95317c0-4.395707-3.596488-7.992195-7.992195-7.992195H423.586341c-4.395707 0-7.992195 3.596488-7.992195 7.992195v47.95317c0 4.395707 3.596488 7.992195 7.992195 7.992196z m-7.992195 205.799024c0 4.395707 3.596488 7.992195 7.992195 7.992195h479.531708c4.395707 0 7.992195-3.596488 7.992195-7.992195v-47.953171c0-4.395707-3.596488-7.992195-7.992195-7.992195H423.586341c-4.395707 0-7.992195 3.596488-7.992195 7.992195v47.953171z m487.523903-482.528781H119.882927c-4.395707 0-7.992195 3.596488-7.992195 7.992196v47.95317c0 4.395707 3.596488 7.992195 7.992195 7.992195h783.235122c4.395707 0 7.992195-3.596488 7.992195-7.992195v-47.95317c0-4.395707-3.596488-7.992195-7.992195-7.992196z m0 639.37561H119.882927c-4.395707 0-7.992195 3.596488-7.992195 7.992195v47.953171c0 4.395707 3.596488 7.992195 7.992195 7.992195h783.235122c4.395707 0 7.992195-3.596488 7.992195-7.992195v-47.953171c0-4.395707-3.596488-7.992195-7.992195-7.992195zM282.424195 518.332816l-156.147512 122.979902c-5.794341 4.595512-14.385951 0.499512-14.385951-6.893268v-245.959805c0-7.39278 8.491707-11.48878 14.385951-6.893268l156.147512 122.979902c4.49561 3.496585 4.49561 10.289951 0 13.786537z" p-id="11217" fill="currentColor"></path></svg>