<?xml version="1.0" standalone="no"?><!DOCTYPE svg PUBLIC "-//W3C//DTD SVG 1.1//EN" "http://www.w3.org/Graphics/SVG/1.1/DTD/svg11.dtd"><svg t="1629871591333" class="icon" viewBox="0 0 1024 1024" version="1.1" xmlns="http://www.w3.org/2000/svg" p-id="12990" xmlns:xlink="http://www.w3.org/1999/xlink" width="64" height="64"><defs><style type="text/css"></style></defs><path d="M384 672a30.08 30.08 0 0 1-22.4-9.6 30.72 30.72 0 0 1 0-44.8l480-480a31.36 31.36 0 0 1 44.8 44.8l-480 480a30.08 30.08 0 0 1-22.4 9.6z" p-id="12991" fill="currentColor"></path><path d="M864 896h-704a32 32 0 0 1-32-32v-704a32 32 0 0 1 32-32H512a32 32 0 0 1 0 64H192v640h640V512a32 32 0 0 1 64 0v352a32 32 0 0 1-32 32z" p-id="12992" fill="currentColor"></path></svg>